<svg width="64" height="64" viewBox="0 0 64 64" fill="none" xmlns="http://www.w3.org/2000/svg">
<mask id="mask0_387_45" style="mask-type:alpha" maskUnits="userSpaceOnUse" x="0" y="0" width="64" height="64">
<rect width="64" height="64" fill="#D9D9D9"/>
</mask>
<g mask="url(#mask0_387_45)">
<path d="M12.4447 48.8887C15.0224 46.4442 17.9653 44.4851 21.2733 43.0113C24.5813 41.5371 28.1553 40.8 31.9953 40.8C35.8353 40.8 39.4109 41.5371 42.722 43.0113C46.0331 44.4851 48.9776 46.4442 51.5553 48.8887V12.4447H12.4447V48.8887ZM32.0887 35.5113C34.6664 35.5113 36.8518 34.6149 38.6447 32.822C40.4371 31.0296 41.3333 28.8444 41.3333 26.2667C41.3333 23.6889 40.4371 21.5038 38.6447 19.7113C36.8518 17.9184 34.6664 17.022 32.0887 17.022C29.5109 17.022 27.3258 17.9184 25.5333 19.7113C23.7409 21.5038 22.8447 23.6889 22.8447 26.2667C22.8447 28.8444 23.7409 31.0296 25.5333 32.822C27.3258 34.6149 29.5109 35.5113 32.0887 35.5113ZM12.4447 56C11.2447 56 10.2038 55.5593 9.322 54.678C8.44067 53.7962 8 52.7553 8 51.5553V12.4447C8 11.2447 8.44067 10.2038 9.322 9.322C10.2038 8.44067 11.2447 8 12.4447 8H51.5553C52.7553 8 53.7962 8.44067 54.678 9.322C55.5593 10.2038 56 11.2447 56 12.4447V51.5553C56 52.7553 55.5593 53.7962 54.678 54.678C53.7962 55.5593 52.7553 56 51.5553 56H12.4447ZM15.8887 51.5553H48.0667C45.5778 49.4073 42.9816 47.8184 40.278 46.7887C37.574 45.7593 34.8147 45.2447 32 45.2447C29.1853 45.2447 26.4187 45.7593 23.7 46.7887C20.9813 47.8184 18.3776 49.4073 15.8887 51.5553ZM32.0887 31.0667C30.7553 31.0667 29.622 30.6 28.6887 29.6667C27.7553 28.7333 27.2887 27.6 27.2887 26.2667C27.2887 24.9333 27.7553 23.8 28.6887 22.8667C29.622 21.9333 30.7553 21.4667 32.0887 21.4667C33.422 21.4667 34.5553 21.9333 35.4887 22.8667C36.422 23.8 36.8887 24.9333 36.8887 26.2667C36.8887 27.6 36.422 28.7333 35.4887 29.6667C34.5553 30.6 33.422 31.0667 32.0887 31.0667Z" fill="#4A40A7"/>
</g>
</svg>
