<svg width="36" height="36" viewBox="0 0 36 36" fill="none" xmlns="http://www.w3.org/2000/svg">
<mask id="mask0_40_102" style="mask-type:alpha" maskUnits="userSpaceOnUse" x="0" y="0" width="36" height="36">
<rect width="36" height="36" fill="#D9D9D9"/>
</mask>
<g mask="url(#mask0_40_102)">
<path d="M17.5874 33.5201L17.284 28.7599L16.8824 28.7513C13.2964 28.6495 10.2674 27.3298 7.7954 24.792C5.3234 22.2543 4.0874 19.1894 4.0874 15.5974C4.0874 11.9339 5.3649 8.82725 7.9199 6.2775C10.4752 3.72775 13.5852 2.45288 17.2499 2.45288C19.0787 2.45288 20.7872 2.79613 22.3754 3.48263C23.9639 4.16913 25.3573 5.1115 26.5555 6.30975C27.754 7.50825 28.6964 8.90163 29.3827 10.4899C30.0692 12.0781 30.4124 13.7866 30.4124 15.6154C30.4124 17.5801 30.0808 19.4564 29.4175 21.2441C28.754 23.0319 27.8493 24.6886 26.7033 26.2144C25.557 27.7404 24.2033 29.1213 22.642 30.357C21.081 31.593 19.3962 32.6474 17.5874 33.5201ZM20.9999 27.3904C22.7749 25.8904 24.2187 24.1341 25.3312 22.1216C26.4437 20.1091 26.9999 17.9404 26.9999 15.6154C26.9999 12.8904 26.0562 10.5841 24.1687 8.69662C22.2812 6.80912 19.9749 5.86538 17.2499 5.86538C14.5249 5.86538 12.2187 6.80912 10.3312 8.69662C8.44365 10.5841 7.4999 12.8904 7.4999 15.6154C7.4999 18.3404 8.44365 20.6466 10.3312 22.5341C12.2187 24.4216 14.5249 25.3654 17.2499 25.3654H20.9999V27.3904ZM17.2214 23.9175C17.6822 23.9175 18.073 23.7571 18.394 23.4364C18.715 23.1154 18.8755 22.7245 18.8755 22.2638C18.8755 21.8028 18.715 21.4118 18.394 21.0908C18.073 20.77 17.6822 20.6096 17.2214 20.6096C16.7604 20.6096 16.3695 20.77 16.0488 21.0908C15.7278 21.4118 15.5673 21.8028 15.5673 22.2638C15.5673 22.7245 15.7278 23.1154 16.0488 23.4364C16.3695 23.7571 16.7604 23.9175 17.2214 23.9175ZM16.0173 19.0744H18.4825C18.4825 18.3184 18.562 17.7815 18.721 17.4638C18.88 17.1458 19.3415 16.6046 20.1055 15.8404C20.5675 15.3784 20.95 14.8849 21.253 14.3599C21.556 13.8349 21.7075 13.2605 21.7075 12.6368C21.7075 11.3228 21.2733 10.3374 20.4048 9.68063C19.5363 9.02363 18.4907 8.69513 17.2679 8.69513C16.1439 8.69513 15.1908 9.01875 14.4085 9.666C13.626 10.3135 13.0783 11.0996 12.7653 12.0244L15.0715 12.93C15.2025 12.4993 15.4385 12.0731 15.7795 11.6516C16.1205 11.2301 16.6107 11.0194 17.2499 11.0194C17.8892 11.0194 18.3685 11.1956 18.688 11.5481C19.0075 11.9006 19.1673 12.2885 19.1673 12.7118C19.1673 13.1128 19.0408 13.4805 18.7878 13.815C18.5348 14.1495 18.2483 14.4769 17.9283 14.7971C17.0473 15.5591 16.5085 16.1708 16.312 16.632C16.1155 17.0935 16.0173 17.9076 16.0173 19.0744Z" fill="#505050"/>
</g>
</svg>
