<svg width="343" height="326" viewBox="0 0 343 326" fill="none" xmlns="http://www.w3.org/2000/svg">
<rect x="1" y="1" width="341" height="324" rx="34" fill="white" stroke="#D2D2D2" stroke-width="2"/>
<path d="M172 33H295" stroke="#ECE6F4" stroke-width="4"/>
<path d="M172 43H295" stroke="#ECE6F4" stroke-width="4"/>
<path d="M172 53H295" stroke="#ECE6F4" stroke-width="4"/>
<path d="M172 63H272" stroke="#ECE6F4" stroke-width="4"/>
<path d="M172 73H272" stroke="#ECE6F4" stroke-width="4"/>
<path d="M132 115H212" stroke="#ECE6F4" stroke-width="4"/>
<path d="M65 135H295" stroke="#ECE6F4" stroke-width="4"/>
<path d="M49 185H295" stroke="#ECE6F4" stroke-width="4"/>
<path d="M49 165H295" stroke="#ECE6F4" stroke-width="4"/>
<path d="M49 205H295" stroke="#ECE6F4" stroke-width="4"/>
<path d="M49 225H295" stroke="#ECE6F4" stroke-width="4"/>
<path d="M49 245H295" stroke="#ECE6F4" stroke-width="4"/>
<path d="M49 235H295" stroke="#ECE6F4" stroke-width="4"/>
<path d="M49 255H295" stroke="#ECE6F4" stroke-width="4"/>
<path d="M49 175H295" stroke="#ECE6F4" stroke-width="4"/>
<path d="M49 215H295" stroke="#ECE6F4" stroke-width="4"/>
<path d="M235 270H295" stroke="#ECE6F4" stroke-width="4"/>
<path d="M235 280H295" stroke="#ECE6F4" stroke-width="4"/>
<path d="M49 155H295" stroke="#ECE6F4" stroke-width="4"/>
<path d="M49 145H295" stroke="#ECE6F4" stroke-width="4"/>
<path d="M49 195H295" stroke="#ECE6F4" stroke-width="4"/>
</svg>
