<svg width="46" height="46" viewBox="0 0 46 46" fill="none" xmlns="http://www.w3.org/2000/svg">
<mask id="mask0_98_114" style="mask-type:alpha" maskUnits="userSpaceOnUse" x="0" y="0" width="46" height="46">
<rect width="46" height="46" fill="#D9D9D9"/>
</mask>
<g mask="url(#mask0_98_114)">
<path d="M34.5 40.25L42.1667 32.5833L39.4834 29.9L36.4167 32.9667V24.9646H32.5834V32.9667L29.5167 29.9L26.8334 32.5833L34.5 40.25ZM26.8334 46V42.1667H42.1667V46H26.8334ZM11.5 38.3333C10.4459 38.3333 9.54342 37.958 8.79273 37.2073C8.04203 36.4566 7.66669 35.5542 7.66669 34.5V7.66668C7.66669 6.61251 8.04203 5.71008 8.79273 4.95939C9.54342 4.20869 10.4459 3.83334 11.5 3.83334H24.9167L36.4167 15.3333V21.1313H32.5834V17.25H23V7.66668H11.5V34.5H23V38.3333H11.5Z" fill="#6454C0"/>
</g>
</svg>
