<svg width="247" height="75" viewBox="0 0 247 75" fill="none" xmlns="http://www.w3.org/2000/svg">
<path d="M62.455 31.055L66.195 30.505C66.855 30.505 67.185 30.7067 67.185 31.11C67.185 31.77 66.195 32.3933 64.215 32.98C62.2717 33.53 60.6583 33.805 59.375 33.805C57.3217 33.805 55.6533 33.1817 54.37 31.935C53.1233 30.6883 52.39 28.9833 52.17 26.82C52.17 24.8033 53.5267 22.7867 56.24 20.77C58.9533 18.7533 62.4367 17.1217 66.69 15.875C70.9433 14.6283 74.83 14.005 78.35 14.005C81.9067 14.005 84.8583 14.3167 87.205 14.94C89.5883 15.5633 91.7517 16.5167 93.695 17.8C95.675 19.0833 97.215 20.88 98.315 23.19C99.4517 25.4633 100.02 28.14 100.02 31.22C100.02 34.96 97.9667 38.8833 93.86 42.99C91.66 45.19 89.0017 47.1883 85.885 48.985C82.805 50.745 78.9 52.1933 74.17 53.33C69.44 54.5033 64.3067 55.09 58.77 55.09C57.3767 55.09 55.1767 54.6133 52.17 53.66C50.63 53.1467 49.2917 52.395 48.155 51.405C47.0183 50.415 46.45 49.1867 46.45 47.72C46.45 46.2167 47.1833 44.7867 48.65 43.43C50.1533 42.0367 51.6567 41.34 53.16 41.34C53.4533 41.34 54.6083 41.6517 56.625 42.275C58.6783 42.8617 60.9333 43.155 63.39 43.155C65.8467 43.155 69.0367 42.5683 72.96 41.395C76.92 40.185 80.5317 38.755 83.795 37.105C87.095 35.4183 89.8817 33.6583 92.155 31.825C94.465 29.955 95.62 28.415 95.62 27.205C95.62 25.4817 93.035 24.62 87.865 24.62C82.7317 24.62 77.4883 25.2617 72.135 26.545C66.8183 27.7917 63.5367 29.2767 62.29 31C62.2533 31.0367 62.2533 31.055 62.29 31.055H62.455ZM65.26 39.085C70.9067 31.9717 73.9317 28.2133 74.335 27.81C75.2517 26.71 75.985 26.16 76.535 26.16C77.1217 26.16 77.58 26.325 77.91 26.655C78.24 26.9483 78.405 27.315 78.405 27.755C78.405 28.195 78.075 28.8367 77.415 29.68C76.755 30.4867 74.9767 32.595 72.08 36.005C69.22 39.415 67.7533 41.1383 67.68 41.175C67.6433 41.2117 67.5517 41.3033 67.405 41.45C67.0383 41.8167 66.6533 42 66.25 42C65.8467 42 65.4983 41.8167 65.205 41.45C64.9483 41.0833 64.82 40.6983 64.82 40.295C64.82 39.855 64.9667 39.4517 65.26 39.085ZM110.037 39.965C110.037 40.955 110.624 41.45 111.797 41.45C112.897 41.45 114.107 41.175 115.427 40.625C116.747 40.075 117.462 39.8 117.572 39.8C117.682 39.8 117.792 39.8917 117.902 40.075C118.049 40.2583 118.122 40.4417 118.122 40.625C118.122 41.0283 117.26 41.56 115.537 42.22C113.85 42.8433 112.622 43.155 111.852 43.155C111.082 43.155 110.532 43.155 110.202 43.155C109.909 43.1183 109.67 43.3017 109.487 43.705C106.774 48.8017 104.079 52.01 101.402 53.33C100.229 53.9167 98.9819 54.21 97.6619 54.21C96.3785 54.21 95.3152 53.7883 94.4719 52.945C93.6652 52.065 93.2619 50.69 93.2619 48.82C93.2619 46.2167 94.1052 43.7967 95.7919 41.56C97.5152 39.2867 99.4585 37.5817 101.622 36.445C103.785 35.3083 105.747 34.74 107.507 34.74C110.477 35.07 111.962 35.9683 111.962 37.435C111.962 37.8383 111.852 38.205 111.632 38.535C111.449 38.8283 111.284 39.0117 111.137 39.085C111.027 39.1217 110.88 39.1583 110.697 39.195C110.257 39.305 110.037 39.5617 110.037 39.965ZM105.527 42.495C104.354 43.375 103.199 44.4933 102.062 45.85C100.962 47.2067 100.412 48.325 100.412 49.205C100.412 50.0483 100.65 50.47 101.127 50.47C101.86 50.47 103.199 49.3517 105.142 47.115C107.122 44.8417 108.112 42.9717 108.112 41.505C108.112 41.285 107.965 41.175 107.672 41.175C107.415 41.175 106.7 41.615 105.527 42.495ZM132.311 44.31C132.274 44.6767 131.083 45.6483 128.736 47.225C126.389 48.765 123.676 50.2683 120.596 51.735C117.516 53.2017 115.298 53.935 113.941 53.935C112.621 53.935 111.484 53.5317 110.531 52.725C109.578 51.8817 109.101 50.9283 109.101 49.865C109.101 47.665 110.073 45.41 112.016 43.1C113.996 40.7533 116.269 38.865 118.836 37.435C121.439 35.9683 123.639 35.235 125.436 35.235C127.269 35.235 128.644 35.4733 129.561 35.95C130.478 36.39 130.936 37.2333 130.936 38.48C130.936 39.7267 130.129 41.175 128.516 42.825C126.939 44.4383 125.583 45.245 124.446 45.245C123.713 45.245 123.346 45.025 123.346 44.585C123.346 44.2917 123.529 44.035 123.896 43.815C124.299 43.595 124.941 43.0817 125.821 42.275C126.701 41.4683 127.141 40.9183 127.141 40.625C127.141 40.515 127.031 40.46 126.811 40.46C125.528 40.46 123.713 41.6333 121.366 43.98C119.019 46.3267 117.846 48.0867 117.846 49.26C117.846 49.8467 118.158 50.14 118.781 50.14C119.441 50.14 120.486 49.7733 121.916 49.04C123.346 48.27 125.106 47.2433 127.196 45.96C129.286 44.6767 130.478 43.9617 130.771 43.815C131.101 43.6317 131.358 43.54 131.541 43.54C132.054 43.54 132.311 43.7967 132.311 44.31ZM136.495 45.905C137.999 45.905 138.75 46.6383 138.75 48.105C138.75 49.425 137.98 50.7267 136.44 52.01C134.937 53.2567 133.562 53.88 132.315 53.88C131.105 53.88 130.299 53.605 129.895 53.055C129.492 52.505 129.29 52.01 129.29 51.57C129.29 51.0933 129.455 50.5983 129.785 50.085C130.152 49.535 130.61 48.9483 131.16 48.325C131.747 47.665 132.517 47.0967 133.47 46.62C134.46 46.1433 135.469 45.905 136.495 45.905ZM159.393 27.975L159.723 29.075C159.723 29.405 159.301 30.0283 158.458 30.945C157.651 31.8617 157.248 32.4117 157.248 32.595C157.248 32.7417 157.358 32.815 157.578 32.815C157.835 32.815 159.155 32.65 161.538 32.32C163.958 31.9533 165.59 31.77 166.433 31.77C167.313 31.77 167.936 32.045 168.303 32.595C168.67 33.1083 168.853 33.6583 168.853 34.245C168.853 34.795 168.285 35.345 167.148 35.895C166.598 36.1883 162.601 37.2333 155.158 39.03L151.528 39.91L141.628 52.45L141.243 52.89C140.436 53.7333 139.813 54.155 139.373 54.155C138.896 54.155 138.475 54.045 138.108 53.825C137.741 53.6417 137.558 53.33 137.558 52.89C137.558 52.45 137.778 51.8633 138.218 51.13C138.621 50.3967 139.776 48.8017 141.683 46.345C143.626 43.8883 144.69 42.5683 144.873 42.385C145.093 42.165 145.203 42 145.203 41.89C145.203 41.7433 145.13 41.67 144.983 41.67C144.836 41.67 143.59 41.9817 141.243 42.605C138.896 43.1917 137.411 43.485 136.788 43.485C136.165 43.485 135.706 43.3383 135.413 43.045C135.12 42.715 134.826 42.2933 134.533 41.78C134.24 41.2667 134.093 40.8633 134.093 40.57C134.093 39.7633 134.643 39.1583 135.743 38.755C139.666 37.2517 144.048 35.9133 148.888 34.74L151.528 34.08C154.351 30.89 155.763 29.185 155.763 28.965C155.763 28.745 155.598 28.635 155.268 28.635C155.231 28.635 154.901 28.7083 154.278 28.855C152.335 29.295 150.281 29.515 148.118 29.515C145.955 29.515 143.975 28.8367 142.178 27.48C140.418 26.0867 139.538 24.5833 139.538 22.97C139.538 21.32 141.041 19.4317 144.048 17.305C147.091 15.1417 149.09 14.06 150.043 14.06C150.996 14.06 151.473 14.39 151.473 15.05C151.473 15.38 151.07 15.8933 150.263 16.59C149.493 17.25 148.943 17.6533 148.613 17.8C148.32 17.91 148.173 18.0567 148.173 18.24C148.173 18.4233 148.301 18.515 148.558 18.515C148.815 18.515 150.721 18.0017 154.278 16.975C157.871 15.9117 161.978 14.8667 166.598 13.84C171.218 12.7767 174.921 12.245 177.708 12.245C178.955 12.245 180.531 12.8133 182.438 13.95C184.345 15.0867 185.298 16.4433 185.298 18.02C185.298 19.12 181.485 20.99 173.858 23.63C166.268 26.2333 161.575 27.5533 159.778 27.59C159.521 27.59 159.393 27.7183 159.393 27.975ZM176.052 39.965C176.052 40.955 176.639 41.45 177.812 41.45C178.912 41.45 180.122 41.175 181.442 40.625C182.762 40.075 183.477 39.8 183.587 39.8C183.697 39.8 183.807 39.8917 183.917 40.075C184.064 40.2583 184.137 40.4417 184.137 40.625C184.137 41.0283 183.275 41.56 181.552 42.22C179.865 42.8433 178.637 43.155 177.867 43.155C177.097 43.155 176.547 43.155 176.217 43.155C175.924 43.1183 175.685 43.3017 175.502 43.705C172.789 48.8017 170.094 52.01 167.417 53.33C166.244 53.9167 164.997 54.21 163.677 54.21C162.394 54.21 161.33 53.7883 160.487 52.945C159.68 52.065 159.277 50.69 159.277 48.82C159.277 46.2167 160.12 43.7967 161.807 41.56C163.53 39.2867 165.474 37.5817 167.637 36.445C169.8 35.3083 171.762 34.74 173.522 34.74C176.492 35.07 177.977 35.9683 177.977 37.435C177.977 37.8383 177.867 38.205 177.647 38.535C177.464 38.8283 177.299 39.0117 177.152 39.085C177.042 39.1217 176.895 39.1583 176.712 39.195C176.272 39.305 176.052 39.5617 176.052 39.965ZM171.542 42.495C170.369 43.375 169.214 44.4933 168.077 45.85C166.977 47.2067 166.427 48.325 166.427 49.205C166.427 50.0483 166.665 50.47 167.142 50.47C167.875 50.47 169.214 49.3517 171.157 47.115C173.137 44.8417 174.127 42.9717 174.127 41.505C174.127 41.285 173.98 41.175 173.687 41.175C173.43 41.175 172.715 41.615 171.542 42.495ZM188.041 32.485C188.298 32.485 188.536 32.6133 188.756 32.87C188.976 33.09 189.086 33.365 189.086 33.695C189.086 33.9883 188.903 34.3733 188.536 34.85C187.106 36.61 186.153 37.7283 185.676 38.205C185.236 38.645 185.016 38.9383 185.016 39.085C185.016 39.2317 185.126 39.305 185.346 39.305C185.603 39.305 186.593 38.9933 188.316 38.37C190.039 37.71 191.176 37.38 191.726 37.38C192.276 37.38 192.844 37.6183 193.431 38.095C194.018 38.535 194.311 39.1217 194.311 39.855C194.311 40.5517 193.193 42.1833 190.956 44.75C188.719 47.28 187.601 48.93 187.601 49.7C187.601 49.8467 187.656 49.92 187.766 49.92C187.949 49.92 188.279 49.81 188.756 49.59C189.233 49.3333 189.526 49.205 189.636 49.205C190.039 49.205 190.241 49.3517 190.241 49.645C190.241 50.7817 189.343 51.9183 187.546 53.055C185.749 54.1917 184.228 54.76 182.981 54.76C181.771 54.76 180.781 54.4117 180.011 53.715C179.241 53.055 178.856 52.1567 178.856 51.02C178.856 49.8833 179.406 48.6183 180.506 47.225C181.643 45.795 182.798 44.7867 183.971 44.2C185.181 43.6133 185.786 43.1367 185.786 42.77C185.786 42.66 185.768 42.5867 185.731 42.55C184.118 43.21 182.798 43.54 181.771 43.54C179.754 43.54 178.746 42.9533 178.746 41.78C178.746 40.4233 179.919 38.645 182.266 36.445C184.613 34.245 186.538 32.925 188.041 32.485ZM193.042 52.725C192.345 52.725 191.758 52.4317 191.282 51.845C190.805 51.2583 190.567 50.525 190.567 49.645C190.567 48.7283 190.97 47.6283 191.777 46.345C192.583 45.0617 193.555 43.87 194.692 42.77C197.112 40.5333 199.257 38.81 201.127 37.6L202.337 36.775C202.923 36.5183 203.528 36.39 204.152 36.39C204.812 36.39 205.398 36.61 205.912 37.05C206.425 37.4533 206.682 37.93 206.682 38.48C206.682 39.03 206.59 39.525 206.407 39.965C206.223 40.405 206.022 40.7533 205.802 41.01C205.215 41.8533 204.867 42.3483 204.757 42.495C204.647 42.605 204.592 42.7333 204.592 42.88C204.592 42.99 204.665 43.045 204.812 43.045C204.995 43.045 205.765 42.5133 207.122 41.45C211.155 38.15 214.052 36.5 215.812 36.5C216.508 36.5 217.095 36.72 217.572 37.16C218.085 37.5633 218.342 38.0217 218.342 38.535C218.342 39.0483 218.232 39.5067 218.012 39.91C217.792 40.2767 217.48 40.6983 217.077 41.175C216.417 41.945 216.087 42.4217 216.087 42.605C216.087 42.7517 216.215 42.825 216.472 42.825C216.765 42.825 217.957 41.9817 220.047 40.295C222.137 38.6083 223.585 37.765 224.392 37.765C225.198 37.765 225.822 38.095 226.262 38.755C226.738 39.3783 226.977 40.02 226.977 40.68C226.977 41.34 226.042 42.8617 224.172 45.245C222.302 47.5917 221.367 48.93 221.367 49.26C221.367 49.59 221.495 49.755 221.752 49.755C221.972 49.7183 222.228 49.6083 222.522 49.425C222.815 49.2417 223.09 49.15 223.347 49.15C223.823 49.15 224.062 49.3517 224.062 49.755C224.062 50.965 223.383 52.0283 222.027 52.945C220.67 53.825 219.295 54.265 217.902 54.265C214.968 54.265 213.502 52.9817 213.502 50.415C213.502 49.9017 213.648 49.26 213.942 48.49C214.272 47.72 214.602 47.17 214.932 46.84C215.042 46.62 215.097 46.4733 215.097 46.4C215.097 46.29 215.023 46.235 214.877 46.235C214.767 46.235 214.62 46.29 214.437 46.4C214.253 46.4733 213.465 47.1333 212.072 48.38C208.258 51.79 205.637 53.495 204.207 53.495C203.437 53.495 202.85 53.22 202.447 52.67C202.043 52.0833 201.842 51.4783 201.842 50.855C201.842 49.7183 202.392 48.4717 203.492 47.115C203.602 46.9317 203.657 46.7667 203.657 46.62C203.657 46.4367 203.583 46.345 203.437 46.345C203.29 46.345 203.125 46.4183 202.942 46.565C197.882 50.6717 194.582 52.725 193.042 52.725ZM234.296 44.915C232.756 44.915 231.344 44.5667 230.061 43.87C228.814 43.1733 228.191 42.11 228.191 40.68C228.191 38.81 229.511 37.1967 232.151 35.84C234.791 34.4833 237.522 33.805 240.346 33.805C242.106 33.805 243.536 34.135 244.636 34.795C245.736 35.4183 246.267 36.3717 246.231 37.655C246.231 38.9017 245.277 40.0383 243.371 41.065C241.501 42.055 240.254 42.55 239.631 42.55C239.007 42.55 238.696 42.4217 238.696 42.165C238.696 41.9083 238.806 41.725 239.026 41.615C239.282 41.4683 239.814 41.2117 240.621 40.845C241.427 40.4783 242.014 40.185 242.381 39.965C242.747 39.7083 242.931 39.5067 242.931 39.36C242.931 39.2133 242.766 39.14 242.436 39.14C241.226 39.14 239.319 39.58 236.716 40.46C234.149 41.3033 232.866 42 232.866 42.55C232.866 42.88 233.599 43.045 235.066 43.045C238.696 43.045 240.511 44.4933 240.511 47.39C240.511 48.6733 239.741 49.8467 238.201 50.91C236.661 51.9367 235.084 52.67 233.471 53.11C231.857 53.55 230.556 53.77 229.566 53.77C228.612 53.77 227.549 53.33 226.376 52.45C225.202 51.57 224.616 50.69 224.616 49.81C224.616 48.93 225.771 48.2883 228.081 47.885C229.107 47.7383 230.464 47.4083 232.151 46.895C233.837 46.345 234.681 45.8317 234.681 45.355C234.681 45.0617 234.552 44.915 234.296 44.915Z" fill="#A49870"/>
<path d="M60.455 32.055L64.195 31.505C64.855 31.505 65.185 31.7067 65.185 32.11C65.185 32.77 64.195 33.3933 62.215 33.98C60.2717 34.53 58.6583 34.805 57.375 34.805C55.3217 34.805 53.6533 34.1817 52.37 32.935C51.1233 31.6883 50.39 29.9833 50.17 27.82C50.17 25.8033 51.5267 23.7867 54.24 21.77C56.9533 19.7533 60.4367 18.1217 64.69 16.875C68.9433 15.6283 72.83 15.005 76.35 15.005C79.9067 15.005 82.8583 15.3167 85.205 15.94C87.5883 16.5633 89.7517 17.5167 91.695 18.8C93.675 20.0833 95.215 21.88 96.315 24.19C97.4517 26.4633 98.02 29.14 98.02 32.22C98.02 35.96 95.9667 39.8833 91.86 43.99C89.66 46.19 87.0017 48.1883 83.885 49.985C80.805 51.745 76.9 53.1933 72.17 54.33C67.44 55.5033 62.3067 56.09 56.77 56.09C55.3767 56.09 53.1767 55.6133 50.17 54.66C48.63 54.1467 47.2917 53.395 46.155 52.405C45.0183 51.415 44.45 50.1867 44.45 48.72C44.45 47.2167 45.1833 45.7867 46.65 44.43C48.1533 43.0367 49.6567 42.34 51.16 42.34C51.4533 42.34 52.6083 42.6517 54.625 43.275C56.6783 43.8617 58.9333 44.155 61.39 44.155C63.8467 44.155 67.0367 43.5683 70.96 42.395C74.92 41.185 78.5317 39.755 81.795 38.105C85.095 36.4183 87.8817 34.6583 90.155 32.825C92.465 30.955 93.62 29.415 93.62 28.205C93.62 26.4817 91.035 25.62 85.865 25.62C80.7317 25.62 75.4883 26.2617 70.135 27.545C64.8183 28.7917 61.5367 30.2767 60.29 32C60.2533 32.0367 60.2533 32.055 60.29 32.055H60.455ZM63.26 40.085C68.9067 32.9717 71.9317 29.2133 72.335 28.81C73.2517 27.71 73.985 27.16 74.535 27.16C75.1217 27.16 75.58 27.325 75.91 27.655C76.24 27.9483 76.405 28.315 76.405 28.755C76.405 29.195 76.075 29.8367 75.415 30.68C74.755 31.4867 72.9767 33.595 70.08 37.005C67.22 40.415 65.7533 42.1383 65.68 42.175C65.6433 42.2117 65.5517 42.3033 65.405 42.45C65.0383 42.8167 64.6533 43 64.25 43C63.8467 43 63.4983 42.8167 63.205 42.45C62.9483 42.0833 62.82 41.6983 62.82 41.295C62.82 40.855 62.9667 40.4517 63.26 40.085ZM108.037 40.965C108.037 41.955 108.624 42.45 109.797 42.45C110.897 42.45 112.107 42.175 113.427 41.625C114.747 41.075 115.462 40.8 115.572 40.8C115.682 40.8 115.792 40.8917 115.902 41.075C116.049 41.2583 116.122 41.4417 116.122 41.625C116.122 42.0283 115.26 42.56 113.537 43.22C111.85 43.8433 110.622 44.155 109.852 44.155C109.082 44.155 108.532 44.155 108.202 44.155C107.909 44.1183 107.67 44.3017 107.487 44.705C104.774 49.8017 102.079 53.01 99.4019 54.33C98.2285 54.9167 96.9819 55.21 95.6619 55.21C94.3785 55.21 93.3152 54.7883 92.4719 53.945C91.6652 53.065 91.2619 51.69 91.2619 49.82C91.2619 47.2167 92.1052 44.7967 93.7919 42.56C95.5152 40.2867 97.4585 38.5817 99.6219 37.445C101.785 36.3083 103.747 35.74 105.507 35.74C108.477 36.07 109.962 36.9683 109.962 38.435C109.962 38.8383 109.852 39.205 109.632 39.535C109.449 39.8283 109.284 40.0117 109.137 40.085C109.027 40.1217 108.88 40.1583 108.697 40.195C108.257 40.305 108.037 40.5617 108.037 40.965ZM103.527 43.495C102.354 44.375 101.199 45.4933 100.062 46.85C98.9619 48.2067 98.4119 49.325 98.4119 50.205C98.4119 51.0483 98.6502 51.47 99.1269 51.47C99.8602 51.47 101.199 50.3517 103.142 48.115C105.122 45.8417 106.112 43.9717 106.112 42.505C106.112 42.285 105.965 42.175 105.672 42.175C105.415 42.175 104.7 42.615 103.527 43.495ZM130.311 45.31C130.274 45.6767 129.083 46.6483 126.736 48.225C124.389 49.765 121.676 51.2683 118.596 52.735C115.516 54.2017 113.298 54.935 111.941 54.935C110.621 54.935 109.484 54.5317 108.531 53.725C107.578 52.8817 107.101 51.9283 107.101 50.865C107.101 48.665 108.073 46.41 110.016 44.1C111.996 41.7533 114.269 39.865 116.836 38.435C119.439 36.9683 121.639 36.235 123.436 36.235C125.269 36.235 126.644 36.4733 127.561 36.95C128.478 37.39 128.936 38.2333 128.936 39.48C128.936 40.7267 128.129 42.175 126.516 43.825C124.939 45.4383 123.583 46.245 122.446 46.245C121.713 46.245 121.346 46.025 121.346 45.585C121.346 45.2917 121.529 45.035 121.896 44.815C122.299 44.595 122.941 44.0817 123.821 43.275C124.701 42.4683 125.141 41.9183 125.141 41.625C125.141 41.515 125.031 41.46 124.811 41.46C123.528 41.46 121.713 42.6333 119.366 44.98C117.019 47.3267 115.846 49.0867 115.846 50.26C115.846 50.8467 116.158 51.14 116.781 51.14C117.441 51.14 118.486 50.7733 119.916 50.04C121.346 49.27 123.106 48.2433 125.196 46.96C127.286 45.6767 128.478 44.9617 128.771 44.815C129.101 44.6317 129.358 44.54 129.541 44.54C130.054 44.54 130.311 44.7967 130.311 45.31ZM134.495 46.905C135.999 46.905 136.75 47.6383 136.75 49.105C136.75 50.425 135.98 51.7267 134.44 53.01C132.937 54.2567 131.562 54.88 130.315 54.88C129.105 54.88 128.299 54.605 127.895 54.055C127.492 53.505 127.29 53.01 127.29 52.57C127.29 52.0933 127.455 51.5983 127.785 51.085C128.152 50.535 128.61 49.9483 129.16 49.325C129.747 48.665 130.517 48.0967 131.47 47.62C132.46 47.1433 133.469 46.905 134.495 46.905ZM157.393 28.975L157.723 30.075C157.723 30.405 157.301 31.0283 156.458 31.945C155.651 32.8617 155.248 33.4117 155.248 33.595C155.248 33.7417 155.358 33.815 155.578 33.815C155.835 33.815 157.155 33.65 159.538 33.32C161.958 32.9533 163.59 32.77 164.433 32.77C165.313 32.77 165.936 33.045 166.303 33.595C166.67 34.1083 166.853 34.6583 166.853 35.245C166.853 35.795 166.285 36.345 165.148 36.895C164.598 37.1883 160.601 38.2333 153.158 40.03L149.528 40.91L139.628 53.45L139.243 53.89C138.436 54.7333 137.813 55.155 137.373 55.155C136.896 55.155 136.475 55.045 136.108 54.825C135.741 54.6417 135.558 54.33 135.558 53.89C135.558 53.45 135.778 52.8633 136.218 52.13C136.621 51.3967 137.776 49.8017 139.683 47.345C141.626 44.8883 142.69 43.5683 142.873 43.385C143.093 43.165 143.203 43 143.203 42.89C143.203 42.7433 143.13 42.67 142.983 42.67C142.836 42.67 141.59 42.9817 139.243 43.605C136.896 44.1917 135.411 44.485 134.788 44.485C134.165 44.485 133.706 44.3383 133.413 44.045C133.12 43.715 132.826 43.2933 132.533 42.78C132.24 42.2667 132.093 41.8633 132.093 41.57C132.093 40.7633 132.643 40.1583 133.743 39.755C137.666 38.2517 142.048 36.9133 146.888 35.74L149.528 35.08C152.351 31.89 153.763 30.185 153.763 29.965C153.763 29.745 153.598 29.635 153.268 29.635C153.231 29.635 152.901 29.7083 152.278 29.855C150.335 30.295 148.281 30.515 146.118 30.515C143.955 30.515 141.975 29.8367 140.178 28.48C138.418 27.0867 137.538 25.5833 137.538 23.97C137.538 22.32 139.041 20.4317 142.048 18.305C145.091 16.1417 147.09 15.06 148.043 15.06C148.996 15.06 149.473 15.39 149.473 16.05C149.473 16.38 149.07 16.8933 148.263 17.59C147.493 18.25 146.943 18.6533 146.613 18.8C146.32 18.91 146.173 19.0567 146.173 19.24C146.173 19.4233 146.301 19.515 146.558 19.515C146.815 19.515 148.721 19.0017 152.278 17.975C155.871 16.9117 159.978 15.8667 164.598 14.84C169.218 13.7767 172.921 13.245 175.708 13.245C176.955 13.245 178.531 13.8133 180.438 14.95C182.345 16.0867 183.298 17.4433 183.298 19.02C183.298 20.12 179.485 21.99 171.858 24.63C164.268 27.2333 159.575 28.5533 157.778 28.59C157.521 28.59 157.393 28.7183 157.393 28.975ZM174.052 40.965C174.052 41.955 174.639 42.45 175.812 42.45C176.912 42.45 178.122 42.175 179.442 41.625C180.762 41.075 181.477 40.8 181.587 40.8C181.697 40.8 181.807 40.8917 181.917 41.075C182.064 41.2583 182.137 41.4417 182.137 41.625C182.137 42.0283 181.275 42.56 179.552 43.22C177.865 43.8433 176.637 44.155 175.867 44.155C175.097 44.155 174.547 44.155 174.217 44.155C173.924 44.1183 173.685 44.3017 173.502 44.705C170.789 49.8017 168.094 53.01 165.417 54.33C164.244 54.9167 162.997 55.21 161.677 55.21C160.394 55.21 159.33 54.7883 158.487 53.945C157.68 53.065 157.277 51.69 157.277 49.82C157.277 47.2167 158.12 44.7967 159.807 42.56C161.53 40.2867 163.474 38.5817 165.637 37.445C167.8 36.3083 169.762 35.74 171.522 35.74C174.492 36.07 175.977 36.9683 175.977 38.435C175.977 38.8383 175.867 39.205 175.647 39.535C175.464 39.8283 175.299 40.0117 175.152 40.085C175.042 40.1217 174.895 40.1583 174.712 40.195C174.272 40.305 174.052 40.5617 174.052 40.965ZM169.542 43.495C168.369 44.375 167.214 45.4933 166.077 46.85C164.977 48.2067 164.427 49.325 164.427 50.205C164.427 51.0483 164.665 51.47 165.142 51.47C165.875 51.47 167.214 50.3517 169.157 48.115C171.137 45.8417 172.127 43.9717 172.127 42.505C172.127 42.285 171.98 42.175 171.687 42.175C171.43 42.175 170.715 42.615 169.542 43.495ZM186.041 33.485C186.298 33.485 186.536 33.6133 186.756 33.87C186.976 34.09 187.086 34.365 187.086 34.695C187.086 34.9883 186.903 35.3733 186.536 35.85C185.106 37.61 184.153 38.7283 183.676 39.205C183.236 39.645 183.016 39.9383 183.016 40.085C183.016 40.2317 183.126 40.305 183.346 40.305C183.603 40.305 184.593 39.9933 186.316 39.37C188.039 38.71 189.176 38.38 189.726 38.38C190.276 38.38 190.844 38.6183 191.431 39.095C192.018 39.535 192.311 40.1217 192.311 40.855C192.311 41.5517 191.193 43.1833 188.956 45.75C186.719 48.28 185.601 49.93 185.601 50.7C185.601 50.8467 185.656 50.92 185.766 50.92C185.949 50.92 186.279 50.81 186.756 50.59C187.233 50.3333 187.526 50.205 187.636 50.205C188.039 50.205 188.241 50.3517 188.241 50.645C188.241 51.7817 187.343 52.9183 185.546 54.055C183.749 55.1917 182.228 55.76 180.981 55.76C179.771 55.76 178.781 55.4117 178.011 54.715C177.241 54.055 176.856 53.1567 176.856 52.02C176.856 50.8833 177.406 49.6183 178.506 48.225C179.643 46.795 180.798 45.7867 181.971 45.2C183.181 44.6133 183.786 44.1367 183.786 43.77C183.786 43.66 183.768 43.5867 183.731 43.55C182.118 44.21 180.798 44.54 179.771 44.54C177.754 44.54 176.746 43.9533 176.746 42.78C176.746 41.4233 177.919 39.645 180.266 37.445C182.613 35.245 184.538 33.925 186.041 33.485ZM191.042 53.725C190.345 53.725 189.758 53.4317 189.282 52.845C188.805 52.2583 188.567 51.525 188.567 50.645C188.567 49.7283 188.97 48.6283 189.777 47.345C190.583 46.0617 191.555 44.87 192.692 43.77C195.112 41.5333 197.257 39.81 199.127 38.6L200.337 37.775C200.923 37.5183 201.528 37.39 202.152 37.39C202.812 37.39 203.398 37.61 203.912 38.05C204.425 38.4533 204.682 38.93 204.682 39.48C204.682 40.03 204.59 40.525 204.407 40.965C204.223 41.405 204.022 41.7533 203.802 42.01C203.215 42.8533 202.867 43.3483 202.757 43.495C202.647 43.605 202.592 43.7333 202.592 43.88C202.592 43.99 202.665 44.045 202.812 44.045C202.995 44.045 203.765 43.5133 205.122 42.45C209.155 39.15 212.052 37.5 213.812 37.5C214.508 37.5 215.095 37.72 215.572 38.16C216.085 38.5633 216.342 39.0217 216.342 39.535C216.342 40.0483 216.232 40.5067 216.012 40.91C215.792 41.2767 215.48 41.6983 215.077 42.175C214.417 42.945 214.087 43.4217 214.087 43.605C214.087 43.7517 214.215 43.825 214.472 43.825C214.765 43.825 215.957 42.9817 218.047 41.295C220.137 39.6083 221.585 38.765 222.392 38.765C223.198 38.765 223.822 39.095 224.262 39.755C224.738 40.3783 224.977 41.02 224.977 41.68C224.977 42.34 224.042 43.8617 222.172 46.245C220.302 48.5917 219.367 49.93 219.367 50.26C219.367 50.59 219.495 50.755 219.752 50.755C219.972 50.7183 220.228 50.6083 220.522 50.425C220.815 50.2417 221.09 50.15 221.347 50.15C221.823 50.15 222.062 50.3517 222.062 50.755C222.062 51.965 221.383 53.0283 220.027 53.945C218.67 54.825 217.295 55.265 215.902 55.265C212.968 55.265 211.502 53.9817 211.502 51.415C211.502 50.9017 211.648 50.26 211.942 49.49C212.272 48.72 212.602 48.17 212.932 47.84C213.042 47.62 213.097 47.4733 213.097 47.4C213.097 47.29 213.023 47.235 212.877 47.235C212.767 47.235 212.62 47.29 212.437 47.4C212.253 47.4733 211.465 48.1333 210.072 49.38C206.258 52.79 203.637 54.495 202.207 54.495C201.437 54.495 200.85 54.22 200.447 53.67C200.043 53.0833 199.842 52.4783 199.842 51.855C199.842 50.7183 200.392 49.4717 201.492 48.115C201.602 47.9317 201.657 47.7667 201.657 47.62C201.657 47.4367 201.583 47.345 201.437 47.345C201.29 47.345 201.125 47.4183 200.942 47.565C195.882 51.6717 192.582 53.725 191.042 53.725ZM232.296 45.915C230.756 45.915 229.344 45.5667 228.061 44.87C226.814 44.1733 226.191 43.11 226.191 41.68C226.191 39.81 227.511 38.1967 230.151 36.84C232.791 35.4833 235.522 34.805 238.346 34.805C240.106 34.805 241.536 35.135 242.636 35.795C243.736 36.4183 244.267 37.3717 244.231 38.655C244.231 39.9017 243.277 41.0383 241.371 42.065C239.501 43.055 238.254 43.55 237.631 43.55C237.007 43.55 236.696 43.4217 236.696 43.165C236.696 42.9083 236.806 42.725 237.026 42.615C237.282 42.4683 237.814 42.2117 238.621 41.845C239.427 41.4783 240.014 41.185 240.381 40.965C240.747 40.7083 240.931 40.5067 240.931 40.36C240.931 40.2133 240.766 40.14 240.436 40.14C239.226 40.14 237.319 40.58 234.716 41.46C232.149 42.3033 230.866 43 230.866 43.55C230.866 43.88 231.599 44.045 233.066 44.045C236.696 44.045 238.511 45.4933 238.511 48.39C238.511 49.6733 237.741 50.8467 236.201 51.91C234.661 52.9367 233.084 53.67 231.471 54.11C229.857 54.55 228.556 54.77 227.566 54.77C226.612 54.77 225.549 54.33 224.376 53.45C223.202 52.57 222.616 51.69 222.616 50.81C222.616 49.93 223.771 49.2883 226.081 48.885C227.107 48.7383 228.464 48.4083 230.151 47.895C231.837 47.345 232.681 46.8317 232.681 46.355C232.681 46.0617 232.552 45.915 232.296 45.915Z" fill="url(#paint0_linear_98_13)"/>
<rect x="2" y="16" width="40" height="40" rx="9" fill="#A49870"/>
<rect y="17" width="40" height="40" rx="9" fill="url(#paint1_radial_98_13)"/>
<g filter="url(#filter0_d_98_13)">
<path d="M10 32.9057C18.4603 29.3781 34.1042 25.2662 28.9976 37.0396C22.6144 51.7563 7.72028 54.7327 11.5198 46.4649C14.5594 39.8506 20.1827 26.7324 22.6144 21" stroke="#AF9CC9" stroke-width="3" shape-rendering="crispEdges"/>
</g>
<defs>
<filter id="filter0_d_98_13" x="4.40829" y="15.4142" width="32.0923" height="42.0858" filterUnits="userSpaceOnUse" color-interpolation-filters="sRGB">
<feFlood flood-opacity="0" result="BackgroundImageFix"/>
<feColorMatrix in="SourceAlpha" type="matrix" values="0 0 0 0 0 0 0 0 0 0 0 0 0 0 0 0 0 0 127 0" result="hardAlpha"/>
<feOffset/>
<feGaussianBlur stdDeviation="2.5"/>
<feComposite in2="hardAlpha" operator="out"/>
<feColorMatrix type="matrix" values="0 0 0 0 0.661479 0 0 0 0 0.590791 0 0 0 0 0.865385 0 0 0 0.89 0"/>
<feBlend mode="normal" in2="BackgroundImageFix" result="effect1_dropShadow_98_13"/>
<feBlend mode="normal" in="SourceGraphic" in2="effect1_dropShadow_98_13" result="shape"/>
</filter>
<linearGradient id="paint0_linear_98_13" x1="45" y1="1" x2="241.302" y2="68.2835" gradientUnits="userSpaceOnUse">
<stop stop-color="#433B74"/>
<stop offset="1" stop-color="#6454C0"/>
</linearGradient>
<radialGradient id="paint1_radial_98_13" cx="0" cy="0" r="1" gradientUnits="userSpaceOnUse" gradientTransform="translate(2.7027 44.5676) rotate(-21.3706) scale(40.0511 60.5036)">
<stop stop-color="#4A40A7"/>
<stop offset="0.571757" stop-color="#4A4084"/>
<stop offset="1" stop-color="#4A40A7"/>
</radialGradient>
</defs>
</svg>
