<svg width="46" height="46" viewBox="0 0 46 46" fill="none" xmlns="http://www.w3.org/2000/svg">
<mask id="mask0_98_103" style="mask-type:alpha" maskUnits="userSpaceOnUse" x="0" y="0" width="46" height="46">
<rect width="46" height="46" fill="#D9D9D9"/>
</mask>
<g mask="url(#mask0_98_103)">
<path d="M37.7104 39.0521L39.0521 37.7104L35.4583 34.1167V28.75H33.5417V34.8833L37.7104 39.0521ZM9.58333 40.25C8.52917 40.25 7.62674 39.8747 6.87604 39.124C6.12535 38.3733 5.75 37.4708 5.75 36.4167V9.58333C5.75 8.52917 6.12535 7.62674 6.87604 6.87604C7.62674 6.12535 8.52917 5.75 9.58333 5.75H36.4167C37.4708 5.75 38.3733 6.12535 39.124 6.87604C39.8747 7.62674 40.25 8.52917 40.25 9.58333V22.425C39.6431 22.1375 39.0201 21.8899 38.3812 21.6823C37.7424 21.4747 37.0875 21.3229 36.4167 21.2271V9.58333H9.58333V36.4167H21.1792C21.275 37.1194 21.4267 37.7903 21.6344 38.4292C21.842 39.0681 22.0896 39.675 22.3771 40.25H9.58333ZM9.58333 36.4167V9.58333V21.2271V21.0833V36.4167ZM13.4167 32.5833H21.2271C21.3229 31.9125 21.4747 31.2576 21.6823 30.6187C21.8899 29.9799 22.1215 29.3569 22.3771 28.75H13.4167V32.5833ZM13.4167 24.9167H25.1083C26.1306 23.9583 27.2726 23.1597 28.5344 22.5208C29.7962 21.8819 31.1458 21.4507 32.5833 21.2271V21.0833H13.4167V24.9167ZM13.4167 17.25H32.5833V13.4167H13.4167V17.25ZM34.5 44.0833C31.8486 44.0833 29.5885 43.149 27.7198 41.2802C25.851 39.4115 24.9167 37.1514 24.9167 34.5C24.9167 31.8486 25.851 29.5885 27.7198 27.7198C29.5885 25.851 31.8486 24.9167 34.5 24.9167C37.1514 24.9167 39.4115 25.851 41.2802 27.7198C43.149 29.5885 44.0833 31.8486 44.0833 34.5C44.0833 37.1514 43.149 39.4115 41.2802 41.2802C39.4115 43.149 37.1514 44.0833 34.5 44.0833Z" fill="#6454C0"/>
</g>
</svg>
