<svg width="46" height="46" viewBox="0 0 46 46" fill="none" xmlns="http://www.w3.org/2000/svg">
<mask id="mask0_98_125" style="mask-type:alpha" maskUnits="userSpaceOnUse" x="0" y="0" width="46" height="46">
<rect width="46" height="46" fill="#D9D9D9"/>
</mask>
<g mask="url(#mask0_98_125)">
<path d="M21.9458 32.5833C22.5208 32.5833 23.0878 32.5115 23.6468 32.3677C24.2059 32.224 24.725 32.0083 25.2041 31.7208L29.9 36.4167L32.5833 33.7333L27.8875 29.0375C28.175 28.5583 28.3906 28.0392 28.5343 27.4802C28.6781 26.9212 28.75 26.3542 28.75 25.7792C28.75 23.9264 28.0951 22.3611 26.7854 21.0833C25.4757 19.8056 23.8944 19.1667 22.0416 19.1667C20.1888 19.1667 18.6076 19.8215 17.2979 21.1313C15.9882 22.441 15.3333 24.0222 15.3333 25.875C15.3333 27.7278 15.9722 29.309 17.25 30.6188C18.5277 31.9285 20.093 32.5833 21.9458 32.5833ZM22.0416 28.75C21.243 28.75 20.5642 28.4705 20.0052 27.9115C19.4461 27.3524 19.1666 26.6736 19.1666 25.875C19.1666 25.0764 19.4461 24.3976 20.0052 23.8386C20.5642 23.2795 21.243 23 22.0416 23C22.8402 23 23.5191 23.2795 24.0781 23.8386C24.6371 24.3976 24.9166 25.0764 24.9166 25.875C24.9166 26.6736 24.6371 27.3524 24.0781 27.9115C23.5191 28.4705 22.8402 28.75 22.0416 28.75ZM11.5 42.1667C10.4458 42.1667 9.54336 41.7913 8.79267 41.0406C8.04197 40.2899 7.66663 39.3875 7.66663 38.3333V7.66668C7.66663 6.61251 8.04197 5.71008 8.79267 4.95939C9.54336 4.20869 10.4458 3.83334 11.5 3.83334H26.8333L38.3333 15.3333V38.3333C38.3333 39.3875 37.9579 40.2899 37.2073 41.0406C36.4566 41.7913 35.5541 42.1667 34.5 42.1667H11.5ZM24.9166 17.25V7.66668H11.5V38.3333H34.5V17.25H24.9166Z" fill="#6454C0"/>
</g>
</svg>
