<svg width="30" height="30" viewBox="0 0 30 30" fill="none" xmlns="http://www.w3.org/2000/svg">
<mask id="mask0_436_266" style="mask-type:alpha" maskUnits="userSpaceOnUse" x="0" y="0" width="30" height="30">
<rect width="30" height="30" fill="#D9D9D9"/>
</mask>
<g mask="url(#mask0_436_266)">
<path d="M13.1302 19.9625C13.1302 18.1754 13.2949 16.8822 13.6245 16.0828C13.9539 15.2834 14.6157 14.4612 15.6098 13.6162C16.4442 12.916 17.0729 12.2974 17.4958 11.7603C17.9187 11.223 18.1302 10.6052 18.1302 9.90686C18.1302 9.09748 17.8574 8.42529 17.312 7.89029C16.7664 7.35508 16.0181 7.08748 15.067 7.08748C14.0493 7.08748 13.2595 7.39925 12.6977 8.02279C12.1356 8.64613 11.7374 9.32102 11.5033 10.0475L7.92578 8.52311C8.39807 7.08519 9.24495 5.8604 10.4664 4.84873C11.6881 3.83727 13.2216 3.33154 15.067 3.33154C17.3143 3.33154 19.0428 3.96331 20.2523 5.22686C21.4617 6.4904 22.0664 8.01123 22.0664 9.78936C22.0664 10.9108 21.8424 11.8625 21.3945 12.6444C20.9466 13.4262 20.2385 14.276 19.2702 15.1937C18.2693 16.1279 17.657 16.8514 17.4333 17.3644C17.2095 17.8773 17.0977 18.7433 17.0977 19.9625H13.1302ZM15.067 27.784C14.3147 27.784 13.6727 27.518 13.1408 26.9859C12.6089 26.454 12.343 25.812 12.343 25.0597C12.343 24.3074 12.6089 23.664 13.1408 23.1297C13.6727 22.5953 14.3147 22.3281 15.067 22.3281C15.8193 22.3281 16.4627 22.5953 16.997 23.1297C17.5316 23.664 17.7989 24.3074 17.7989 25.0597C17.7989 25.812 17.5316 26.454 16.997 26.9859C16.4627 27.518 15.8193 27.784 15.067 27.784Z" fill="#4A40A7"/>
</g>
</svg>
