<svg width="40" height="40" viewBox="0 0 40 40" fill="none" xmlns="http://www.w3.org/2000/svg">
<g clip-path="url(#clip0_60_389)">
<path d="M20 0.625C8.95427 0.625 0 9.29945 0 20C0 30.7005 8.95427 39.375 20 39.375C31.0457 39.375 40 30.7005 40 20C40 9.29945 31.0457 0.625 20 0.625ZM29.2703 13.8016C28.9694 16.8652 27.667 24.2998 27.0042 27.7312C26.7239 29.1831 26.1718 29.67 25.6374 29.7176C24.4761 29.8212 23.594 28.9741 22.4691 28.2597C20.7089 27.1419 19.7144 26.446 18.0057 25.3552C16.0311 24.0947 17.3112 23.4021 18.4365 22.2693C18.731 21.973 23.8484 17.4638 23.9474 17.0548C23.9598 17.0036 23.9716 16.8126 23.8544 16.7123C23.7371 16.612 23.5648 16.6459 23.4402 16.6732C23.2637 16.7121 20.4517 18.5126 15.0041 22.0749C14.206 22.6059 13.483 22.8646 12.8352 22.851C12.1211 22.8361 10.7475 22.4599 9.72629 22.1383C8.47379 21.7439 7.47831 21.5354 7.565 20.8655C7.61016 20.5166 8.10613 20.1598 9.0529 19.7952C14.8833 17.3344 18.7712 15.712 20.7165 14.928C26.2706 12.69 27.4248 12.3012 28.177 12.2883C28.3425 12.2856 28.7124 12.3253 28.952 12.5137C29.1114 12.6479 29.213 12.8351 29.2367 13.0384C29.2773 13.2907 29.2886 13.5467 29.2703 13.8016Z" fill="#FAF8F6"/>
</g>
<defs>
<clipPath id="clip0_60_389">
<rect width="40" height="40" fill="white"/>
</clipPath>
</defs>
</svg>
